<svg id="visual" viewBox="0 0 900 450" width="900" height="450" xmlns="http://www.w3.org/2000/svg" xmlns:xlink="http://www.w3.org/1999/xlink" version="1.1"><rect x="0" y="0" width="900" height="450" fill="#002233"></rect><path d="M0 337L21.5 342.8C43 348.7 86 360.3 128.8 362.2C171.7 364 214.3 356 257.2 357C300 358 343 368 385.8 368.7C428.7 369.3 471.3 360.7 514.2 354.5C557 348.3 600 344.7 642.8 348.3C685.7 352 728.3 363 771.2 368.3C814 373.7 857 373.3 878.5 373.2L900 373L900 451L878.5 451C857 451 814 451 771.2 451C728.3 451 685.7 451 642.8 451C600 451 557 451 514.2 451C471.3 451 428.7 451 385.8 451C343 451 300 451 257.2 451C214.3 451 171.7 451 128.8 451C86 451 43 451 21.5 451L0 451Z" fill="#0066FF" stroke-linecap="round" stroke-linejoin="miter"></path></svg>